<?xml version="1.0" encoding="UTF-8"?>
<svg width="33px" height="32px" viewBox="0 0 33 32" version="1.1" xmlns="http://www.w3.org/2000/svg" xmlns:xlink="http://www.w3.org/1999/xlink">
    <title>FDDEB8EA-5759-469B-B6DB-8F71C11C43F7</title>
    <defs>
        <linearGradient x1="50%" y1="0%" x2="50%" y2="100%" id="linearGradient-1">
            <stop stop-color="#CBCBE4" offset="0%"></stop>
            <stop stop-color="#54546F" offset="100%"></stop>
        </linearGradient>
    </defs>
    <g id="Page-1" stroke="none" stroke-width="1" fill="none" fill-rule="evenodd">
        <g id="menu" transform="translate(-44.000000, -646.000000)" fill="url(#linearGradient-1)">
            <path d="M72.1338,672.1653 C71.9478,672.4843 71.6128,672.6623 71.2678,672.6623 C71.0978,672.6623 70.9248,672.6183 70.7668,672.5263 L67.2158,670.4623 C66.9068,670.2833 66.7178,669.9543 66.7178,669.5983 L66.7178,664.2293 C66.7178,663.6773 67.1658,663.2293 67.7178,663.2293 C68.2698,663.2293 68.7178,663.6773 68.7178,664.2293 L68.7178,669.0223 L71.7718,670.7983 C72.2488,671.0753 72.4108,671.6873 72.1338,672.1653 M67.7178,660.3113 C72.5008,660.3113 76.3778,664.1883 76.3778,668.9713 C76.3778,673.7543 72.5008,677.6313 67.7178,677.6313 C62.9348,677.6313 59.0578,673.7543 59.0578,668.9713 C59.0578,664.1883 62.9348,660.3113 67.7178,660.3113 Z M61.2486,646 C64.8216,646 67.7176,648.896 67.7176,652.469 L67.7176,658.312 C61.8396,658.312 57.0576,663.094 57.0576,668.972 C57.0576,669.224 57.0786,669.47 57.0956,669.718 L50.4686,669.718 C46.8966,669.718 43.9996,666.822 43.9996,663.249 L43.9996,652.469 C43.9996,648.896 46.8966,646 50.4686,646 Z" id="ico-new"></path>
        </g>
    </g>
</svg>