<?xml version="1.0" encoding="UTF-8"?>
<svg width="32px" height="27px" viewBox="0 0 32 27" version="1.1" xmlns="http://www.w3.org/2000/svg" xmlns:xlink="http://www.w3.org/1999/xlink">
    <title>DDADC60D-DF73-4B78-9BE9-ACEBFFBC8254</title>
    <defs>
        <linearGradient x1="50%" y1="0%" x2="50%" y2="100%" id="linearGradient-1">
            <stop stop-color="#CCCCE5" offset="0%"></stop>
            <stop stop-color="#595974" offset="100%"></stop>
        </linearGradient>
    </defs>
    <g id="Page-1" stroke="none" stroke-width="1" fill="none" fill-rule="evenodd">
        <g id="menu" transform="translate(-42.000000, -549.000000)" fill="url(#linearGradient-1)">
            <path d="M69.1473,575.7992 L46.8523,575.7992 C46.1073,575.7992 45.5033,575.1952 45.5033,574.4502 L45.5033,573.8452 C45.5033,573.1002 46.1073,572.4962 46.8523,572.4962 L69.1473,572.4962 C69.8923,572.4962 70.4963,573.1002 70.4963,573.8452 L70.4963,574.4502 C70.4963,575.1952 69.8923,575.7992 69.1473,575.7992 M66.758,556.478 L63.973,563.368 C63.744,563.935 63.194,564.306 62.582,564.306 C61.971,564.306 61.421,563.935 61.192,563.368 L58.406,556.478 C58.095,555.71 58.466,554.836 59.234,554.525 C60.003,554.213 60.877,554.585 61.187,555.353 L62.582,558.804 L63.977,555.354 C64.287,554.585 65.159,554.213 65.929,554.525 C66.697,554.836 67.069,555.71 66.758,556.478 M56.358,557.416 L54.995,557.416 L54.995,562.806 C54.995,563.634 54.323,564.306 53.495,564.306 C52.666,564.306 51.995,563.634 51.995,562.806 L51.995,557.416 L50.632,557.416 C49.803,557.416 49.132,556.745 49.132,555.916 C49.132,555.087 49.803,554.416 50.632,554.416 L56.358,554.416 C57.187,554.416 57.858,555.087 57.858,555.916 C57.858,556.745 57.187,557.416 56.358,557.416 M70.402,549 L45.598,549 C43.611,549 42,550.611 42,552.598 L42,566.378 C42,568.365 43.611,569.976 45.598,569.976 L70.402,569.976 C72.389,569.976 74,568.365 74,566.378 L74,552.598 C74,550.611 72.389,549 70.402,549" id="ico-tv"></path>
        </g>
    </g>
</svg>