<?xml version="1.0" encoding="UTF-8"?>
<svg width="33px" height="32px" viewBox="0 0 33 32" version="1.1" xmlns="http://www.w3.org/2000/svg" xmlns:xlink="http://www.w3.org/1999/xlink">
    <title>31B11030-33FC-4C2C-82AA-1DAFCDAC2AAE</title>
    <defs>
        <linearGradient x1="50%" y1="0%" x2="50%" y2="100%" id="linearGradient-1">
            <stop stop-color="#CACAE3" offset="0%"></stop>
            <stop stop-color="#575772" offset="100%"></stop>
        </linearGradient>
    </defs>
    <g id="Page-1" stroke="none" stroke-width="1" fill="none" fill-rule="evenodd">
        <g id="menu" transform="translate(-42.000000, -748.000000)" fill="url(#linearGradient-1)">
            <path d="M65.676,759.903 L62.545,762.971 C62.125,763.382 61.967,763.993 62.136,764.556 L63.274,768.357 C63.491,769.081 62.671,769.671 62.053,769.235 L58.419,766.668 C58.177,766.497 57.853,766.497 57.612,766.668 L53.977,769.235 C53.359,769.671 52.539,769.081 52.756,768.357 L53.894,764.556 C54.063,763.993 53.906,763.382 53.486,762.971 L50.354,759.903 C49.918,759.476 50.196,758.734 50.806,758.699 L55.035,758.455 C55.385,758.435 55.694,758.218 55.832,757.895 L57.525,753.921 C57.709,753.489 58.321,753.489 58.506,753.921 L60.199,757.895 C60.336,758.218 60.645,758.435 60.995,758.455 L65.224,758.699 C65.834,758.734 66.112,759.476 65.676,759.903 M69.44,748 L46.59,748 C44.055,748 42,750.055 42,752.59 L42,770.706 C42,773.242 44.055,775.297 46.59,775.297 L53.041,775.297 L56.463,779.121 C57.291,780.046 58.739,780.046 59.567,779.121 L62.989,775.297 L69.44,775.297 C71.975,775.297 74.03,773.242 74.03,770.706 L74.03,752.59 C74.03,750.055 71.975,748 69.44,748" id="ico-fav"></path>
        </g>
    </g>
</svg>