<?xml version="1.0" encoding="UTF-8"?>
<svg width="40px" height="27px" viewBox="0 0 40 27" version="1.1" xmlns="http://www.w3.org/2000/svg" xmlns:xlink="http://www.w3.org/1999/xlink">
    <title>30840137-A084-4D85-8BDB-8B6815AE4705</title>
    <defs>
        <linearGradient x1="50%" y1="0%" x2="50%" y2="100%" id="linearGradient-1">
            <stop stop-color="#D1D1EA" offset="0%"></stop>
            <stop stop-color="#51516C" offset="100%"></stop>
        </linearGradient>
    </defs>
    <g id="Page-1" stroke="none" stroke-width="1" fill="none" fill-rule="evenodd">
        <g id="menu" transform="translate(-39.000000, -452.000000)" fill="url(#linearGradient-1)">
            <path d="M73.946,452 C76.246,452 78.11,453.864 78.11,456.164 L78.11,474.07 C78.11,476.369 76.246,478.233 73.946,478.233 L43.163,478.233 C40.864,478.233 39,476.369 39,474.07 L39,456.164 C39,453.864 40.864,452 43.163,452 Z M68.436,455.445 L48.674,455.445 L48.674,475.207 L68.436,475.207 L68.436,455.445 Z M73.402,469.749 L72.031,469.749 C71.478,469.749 71.031,470.197 71.031,470.749 L71.031,472.121 C71.031,472.673 71.478,473.121 72.031,473.121 L73.402,473.121 C73.954,473.121 74.402,472.673 74.402,472.121 L74.402,470.749 C74.402,470.197 73.954,469.749 73.402,469.749 Z M45.764,469.749 L44.392,469.749 C43.84,469.749 43.392,470.197 43.392,470.749 L43.392,472.121 C43.392,472.673 43.84,473.121 44.392,473.121 L45.764,473.121 C46.316,473.121 46.764,472.673 46.764,472.121 L46.764,470.749 C46.764,470.197 46.316,469.749 45.764,469.749 Z M57.063,460.1792 L62.427,463.3562 C63.765,464.1482 63.765,466.0852 62.427,466.8772 L57.063,470.0542 C55.901,470.7422 54.432,469.9052 54.432,468.5542 L54.432,461.6792 C54.432,460.3282 55.901,459.4912 57.063,460.1792 Z M73.402,463.44 L72.031,463.44 C71.478,463.44 71.031,463.888 71.031,464.44 L71.031,465.812 C71.031,466.364 71.478,466.812 72.031,466.812 L73.402,466.812 C73.954,466.812 74.402,466.364 74.402,465.812 L74.402,464.44 C74.402,463.888 73.954,463.44 73.402,463.44 Z M45.764,463.44 L44.392,463.44 C43.84,463.44 43.392,463.888 43.392,464.44 L43.392,465.812 C43.392,466.364 43.84,466.812 44.392,466.812 L45.764,466.812 C46.316,466.812 46.764,466.364 46.764,465.812 L46.764,464.44 C46.764,463.888 46.316,463.44 45.764,463.44 Z M73.402,457.131 L72.031,457.131 C71.478,457.131 71.031,457.579 71.031,458.131 L71.031,459.503 C71.031,460.055 71.478,460.503 72.031,460.503 L73.402,460.503 C73.954,460.503 74.402,460.055 74.402,459.503 L74.402,458.131 C74.402,457.579 73.954,457.131 73.402,457.131 Z M45.764,457.131 L44.392,457.131 C43.84,457.131 43.392,457.579 43.392,458.131 L43.392,459.503 C43.392,460.055 43.84,460.503 44.392,460.503 L45.764,460.503 C46.316,460.503 46.764,460.055 46.764,459.503 L46.764,458.131 C46.764,457.579 46.316,457.131 45.764,457.131 Z" id="ico-movies"></path>
        </g>
    </g>
</svg>